<svg width="40" height="40" viewBox="0 0 40 40" fill="none" xmlns="http://www.w3.org/2000/svg">
  <!-- Background circle -->
  <circle cx="20" cy="20" r="20" fill="#4A90E2"/>
  
  <!-- Head -->
  <circle cx="20" cy="16" r="8" fill="#FFE4B5"/>
  
  <!-- Hair -->
  <path d="M12 12 C12 8, 16 6, 20 6 C24 6, 28 8, 28 12 C28 10, 26 8, 20 8 C14 8, 12 10, 12 12 Z" fill="#2C3E50"/>
  
  <!-- Eyes -->
  <circle cx="17" cy="14" r="1.5" fill="#2C3E50"/>
  <circle cx="23" cy="14" r="1.5" fill="#2C3E50"/>
  
  <!-- Glasses -->
  <circle cx="17" cy="14" r="3" stroke="#2C3E50" stroke-width="1" fill="none"/>
  <circle cx="23" cy="14" r="3" stroke="#2C3E50" stroke-width="1" fill="none"/>
  <line x1="20" y1="14" x2="20" y2="14" stroke="#2C3E50" stroke-width="1"/>
  
  <!-- Nose -->
  <ellipse cx="20" cy="16" rx="1" ry="0.8" fill="#E6B89C"/>
  
  <!-- Mouth -->
  <path d="M17 18 Q20 20, 23 18" stroke="#2C3E50" stroke-width="1.5" fill="none"/>
  
  <!-- Body -->
  <rect x="16" y="24" width="8" height="12" rx="2" fill="#2C3E50"/>
  
  <!-- Tie -->
  <rect x="19" y="24" width="2" height="8" fill="#E74C3C"/>
  <polygon points="19,32 20,35 21,32" fill="#E74C3C"/>
  
  <!-- AI indicator -->
  <circle cx="32" cy="8" r="6" fill="#27AE60"/>
  <text x="32" y="11" text-anchor="middle" fill="white" font-size="8" font-weight="bold">AI</text>
</svg>
